<svg xmlns="http://www.w3.org/2000/svg" width="18" height="18" viewBox="0 0 48 48">
  <path fill="#FFC107" d="M43.6 20.5H42V20H24v8h11.3c-1.6 4.6-6 8-11.3 8c-6.6 0-12-5.4-12-12s5.4-12 12-12c3.1 0 5.9 1.2 8 3.1l5.7-5.7C33.3 6.1 28.9 4 24 4C12.9 4 4 12.9 4 24s8.9 20 20 20s20-8.9 20-20c0-1.3-.1-2.7-.4-3.5z"/>
  <path fill="#FF3D00" d="M6.3 14.7l6.6 4.8C14.4 15.2 18.8 12 24 12c3.1 0 5.9 1.2 8 3.1l5.7-5.7C33.3 6.1 28.9 4 24 4C16.3 4 9.6 8.3 6.3 14.7z"/>
  <path fill="#4CAF50" d="M24 44c4.8 0 9.2-1.8 12.5-4.8l-5.8-5.5c-2 1.5-4.6 2.3-6.7 2.3c-5.3 0-9.7-3.4-11.3-8l-6.6 5C9.6 39.7 16.3 44 24 44z"/>
  <path fill="#1976D2" d="M43.6 20.5H42V20H24v8h11.3c-.8 2.3-2.3 4.3-4.3 5.7l5.8 5.5C39.2 35.2 42 30 42 24c0-1.3-.1-2.7-.4-3.5z"/>
</svg>
